<svg xmlns="http://www.w3.org/2000/svg" version="1.1" viewBox="-5.0 -10.0 110.0 135.0">
 <path d="m76.785 22.672c-1.1445 0.6875-2.1992-1.1289-1.0312-1.7812 2.043-0.96875 4.4961-3.3398 5.2695-1.8555 0.09375 0.16406 0.14062 0.33984 0.13672 0.51562l0.003906 10.941h2.8281c1.3398-0.019532 1.3398 2.0859 0 2.0664h-7.0625c-0.14063-0.67578-0.30469-1.3672-0.49609-2.0664h2.6641v-9.1562zm-0.51562-8.125c-1.3398 0.019531-1.3398-2.0859 0-2.0664h2.832v-9.1562l-2.3164 1.3398c-1.1445 0.67969-2.1914-1.1328-1.0234-1.7812 2.043-0.96875 4.4961-3.3398 5.2656-1.8516 0.09375 0.16016 0.13672 0.33984 0.13672 0.51172l0.003907 10.941h2.8281c1.3398-0.019531 1.3398 2.0859 0 2.0664-1.9414-0.007812-5.7891-0.003906-7.7266-0.003906zm16.508-14.039c2.6992 0 4.8945 2.1992 4.8945 4.8945l0.003906 4.25c-0.003906 2.6953-2.1992 4.8945-4.8945 4.8945-2.6992 0-4.8945-2.1953-4.8945-4.8945l-0.003907-4.25c0.003907-2.6992 2.1992-4.8945 4.8945-4.8945zm2 2.8945c-1.6523-1.7773-4.9102-0.46094-4.8281 1.9961 0.12109 2.4141-0.89844 7.0039 2.832 7.082 3.7266-0.078125 2.7109-4.668 2.832-7.082-0.003906-0.77344-0.32422-1.4805-0.83594-1.9961zm-31.824 7.418c-0.039063-0.03125-0.070313-0.066406-0.10156-0.10547zm-0.39062-3.2695c0.71094 0.65625 1.4062 1.3477 2.0859 2.0664 0.14453-2-0.60547-4.6094 0.83984-6.2109 1.6523-1.7773 4.9102-0.46094 4.8281 1.9961-0.10938 2.5977 0.92188 7.3359-3.207 7.0547 0.51172 0.64062 1.0078 1.293 1.4883 1.9648 2.1875-0.51562 3.7812-2.4688 3.7852-4.7656v-4.2539c-0.92969-7.8867-11.207-5.5898-9.8203 2.1484zm26.355 25.008c-1.3398 0.019531-1.3398-2.0859 0-2.0664h2.832v-9.1562l-2.3125 1.3359c-1.1445 0.6875-2.1992-1.1289-1.0312-1.7812 2.0469-0.96875 4.4961-3.3398 5.2695-1.8555 0.09375 0.16406 0.14062 0.33984 0.13672 0.51562l0.003906 10.941h2.8281c1.3398-0.019532 1.3398 2.0859 0 2.0664h-7.7266z" fill="#5C62EC"/>
 <path d="m21.301 68.492v25.23h51.578c0.054688-5.4219-0.039062-19.629 0-25.23 0-2.0898-1.707-3.7969-3.7969-3.7969l-43.988 0.003907c-2.0859 0-3.7969 1.707-3.793 3.793z" fill="#5C62EC"/>
 <path d="m15.09 86.07c-1.3398 0.019532-1.3398-2.0859 0-2.0664h4.1445v-15.512c0.003906-3.2227 2.6289-5.8633 5.8594-5.8594h43.988c3.2227 0 5.8594 2.6445 5.8594 5.8594v15.512c2.0664 0.17578 5.2383-0.63281 5.1758 1.0312 0.0625 1.6641-3.1094 0.85547-5.1758 1.0312v7.6836c2.7539 0.35156 2.9023 3.5781 2.4375 5.7305h7.9453c3.8281 0.13672 6.9062-3.9492 5.6641-7.582l-9.6055-30.539c-0.64062-2.0312-2.0703-3.4727-4.1328-4.0273-1.1875-0.28125-8.3516-2.4062-9.4062-2.3203-0.80078-0.14844-11.988 3.0625-13.031 3.293-1.3555 0.35156-6.4102 1.875-7.7227 1.832-1.2891 0.027343-5.6016-1.293-6.9023-1.6133-0.96094-0.19531-13.168-3.7227-13.852-3.5117-1.1094-0.125-8.2227 2.0977-9.4062 2.3203-2.0625 0.55469-3.4922 2-4.1328 4.0273l-9.6094 30.543c-1.2422 3.6328 1.832 7.7188 5.6641 7.582h7.9453c-0.46484-2.1523-0.31641-5.3789 2.4375-5.7305v-7.6836z" fill="#5C62EC"/>
 <path d="m73.91 95.789h-53.645c-0.35938 0.003907-1.0234-0.066406-1.2773 0.27734-0.54688 0.35156-0.16797 1.9727-0.27734 2.4727 0.007812 0.83984 0.87109 1.0273 1.5547 0.94531h53.641c0.35938-0.003906 1.0234 0.066406 1.2773-0.27734 0.54688-0.35156 0.16797-1.9688 0.27734-2.4688-0.003907-0.84766-0.86719-1.0352-1.5508-0.94922z" fill="#5C62EC"/>
 <path d="m47.598 53.195c8.043 0 14.613-6.5742 14.613-14.613v-5.0469c-8.5703-1.6719-20.656-1.6719-29.223 0v5.0469c-0.003906 8.043 6.5742 14.613 14.609 14.613z" fill="#5C62EC"/>
 <path d="m64.277 38.586c-0.015625 6.2266-3.4102 11.672-8.6328 14.594 0.011719 0.92187 0.007813 1.8477 0.003907 2.7695 2.8398-0.50391 11.227-3.7812 14.043-2.7695 2.8359-4.6602 5.4141-9.9844 5.7383-14.988-2.5664-1.7266-6.4766-3.207-11.152-4.2383z" fill="#5C62EC"/>
 <path d="m47.598 30.203c9.7383 0.085937 19.91 1.3164 27.738 5.5117-1.293-12.254-13.336-32.492-27.738-33.012-10.258 0.33203-18.402 10.32-23.164 19.113 2.2227 2.9453 0.33203 7.5586-3.3398 7.9922-0.61719 2.0195-1.0391 3.9023-1.2383 5.9062 7.8398-4.1953 18.008-5.4219 27.742-5.5117z" fill="#5C62EC"/>
 <path d="m35.824 50.363c-4.4141-3.9844-5.3008-10.586-4.9023-16.41-4.6758 1.0312-8.5859 2.5078-11.152 4.2383 0.32031 4.9609 2.8359 10.184 5.6328 14.816 2.1055-0.51953 11.781 2.7617 13.957 3.1641-0.003906-1.0352-0.011719-2.0703 0.003906-3.0977-1.2969-0.74609-2.4883-1.6602-3.5391-2.7109z" fill="#5C62EC"/>
 <path d="m47.598 55.262c-2.1719 0-4.2539-0.42188-6.1641-1.1875l-0.003906 2.6523c0.96094 0.20313 4.7305 1.4102 5.6562 1.3477 0.88281 0.078125 5.5586-1.3789 6.4922-1.5742 0.003906-0.78516 0.011719-1.5742 0.011719-2.3633-1.8633 0.72656-3.8828 1.125-5.9922 1.125z" fill="#5C62EC"/>
 <path d="m5.3203 27.797h15.027c3.0469-0.12109 3.7578-3.3242 2-5.4766l-6.9336-12.008c-0.76172-1.4414-2.7188-1.8945-4.0859-1.1055-0.57031-0.52734-8.2109 13.734-8.6211 14.164-1.1328 1.8828 0.39844 4.5195 2.6133 4.4258zm8.5469-5.8008v0.78906c0.019531 1.3398-2.0859 1.3398-2.0664 0v-0.78906c-0.019531-1.3398 2.0859-1.3398 2.0664 0zm0-3.8438c0.019531 1.3398-2.0859 1.3398-2.0664 0 0.17969-2.2383-0.63281-5.4102 1.0312-5.3516 1.668-0.066406 0.85547 3.1172 1.0352 5.3516z" fill="#5C62EC"/>
</svg>